<?xml version="1.0" encoding="utf-8"?>
<!-- Uploaded to: SVG Repo, www.svgrepo.com, Generator: SVG Repo Mixer Tools -->
<svg width="800px" height="800px" viewBox="0 0 1024 1024" class="icon"  version="1.1" xmlns="http://www.w3.org/2000/svg"><path d="M826 681.9c2 1.4 46.7 32.8 15.8 110l-0.2-0.2c-1.2 4.7-5.3 8.1-10.2 8.1-5.9 0-10.5-4.8-10.5-10.7 0-2 0.6-3.6 1.5-5.1h-0.3c24.4-60.6-6.8-83.8-8.1-84.7l0.2-0.2c-3.3-1.8-5.7-5.1-5.7-9.2 0-5.9 4.8-10.7 10.7-10.7 2.6 0 5 1.1 6.9 2.7z" fill="#EF4668" /><path d="M812.7 348.2v123.6c0 12.3-9.9 22.3-22.3 22.3H526V326.9c5.3-0.2 10.2-0.5 15-0.9h249.4c12.4 0 22.3 10.1 22.3 22.2z" fill="#FFF0C2" /><path d="M763.8 520.4v80.8c-5.6-0.8-11.1-1.2-16.7-1.2-77.7 0-140.9 63.2-140.9 140.9 0 48.8 25 91.7 62.6 116.9H526V520.4h237.8z" fill="#FFE085" /><path d="M664.9 179.2c0.3 0.3 25.9 38.8 7.8 70.6-11.9 20.8-45 43.5-129 49.8H459c29.5-51.6 91.8-141.5 148.7-147.9 21.1-2.4 40.1 6.9 57.2 27.5zM436.2 326c20 1.2 39.1 1.8 57 1.8 2.3 0 4.2-0.2 6.5-0.2v530.2h-92.3V327c7.7-0.2 15.2-0.5 23.2-1.1h5.6zM258.9 151.7c56.7 6.5 119.2 96.3 148.7 147.9h-85.5c-83.5-6.3-116.3-29-128.2-49.8-17.8-31.5 7.2-69.7 7.1-69.7 17.9-21.5 36.7-30.8 57.9-28.4z" fill="#F59A9B" /><path d="M381.1 520.4v337.4H156c-10.5 0-19.1-8.1-19.1-18.2V520.4h244.2z" fill="#FFE085" /><path d="M381.1 327.6V494H103.6c-12.3 0-22.3-9.9-22.3-22.3V348.2c0-12.2 9.9-22.3 22.3-22.3h222c15 1.1 30.7 1.8 47.9 1.8 2.5 0.1 5.1-0.1 7.6-0.1z" fill="#FFF0C2" /><path d="M499.7 857.8V327.6c-2.3 0-4.2 0.2-6.5 0.2-17.9 0-37-0.6-57-1.8h-5.6c-8 0.6-15.5 0.9-23.2 1.1v530.8h92.3z m173.1-608c18.1-31.8-7.5-70.3-7.8-70.6-17.2-20.6-36.1-29.9-57.2-27.5-56.9 6.5-119.2 96.3-148.7 147.9h84.7c84-6.3 117.1-29 129-49.8z m91 351.4v-80.8H526v337.4h142.8c-37.6-25.3-62.6-68.2-62.6-116.9 0-77.7 63.2-140.9 140.9-140.9 5.6 0 11.2 0.5 16.7 1.2z m48.9-129.4V348.2c0-12.2-9.9-22.3-22.3-22.3H541.1c-4.8 0.5-9.8 0.8-15 0.9V494h264.4c12.3 0.1 22.2-9.9 22.2-22.2z m54.1 269.1c0-65.9-53.7-119.6-119.6-119.6S627.5 675 627.5 740.9s53.7 119.6 119.6 119.6 119.7-53.7 119.7-119.6zM381.1 520.4H136.9v319.2c0 10.1 8.6 18.2 19.1 18.2h225.1V520.4zM261.8 125.5c77.1 8.7 148.1 124 171.6 166.1 23.5-42.1 94.7-157.4 171.6-166.1 30.1-3.3 57.5 9.3 81.1 37.8 2.1 3.2 35.8 53.3 9.8 99.3-8.4 15-22.6 27.2-41.4 37h136c26.8 0 48.6 21.8 48.6 48.6v123.6c0 26.8-21.8 48.6-48.6 48.6h-4.1v85.3c58.5 17.2 101.4 71.2 101.4 135.1 0 34-12.2 65.3-32.4 89.7l87.4 89.8 0.2 0.2c1.7 1.8 2.9 4.4 2.9 7.2 0 5.7-4.7 10.4-10.4 10.4-3 0-5.6-1.2-7.5-3l-0.2 0.2-87.1-89.5c-25 22.3-57.6 35.8-93.6 35.8-3.3 0-6.6-0.2-9.8-0.5H156c-23 0-41.7-18.7-41.7-41.5V520.4h-10.7c-26.8 0-48.6-21.8-48.6-48.6V348.2c0-26.8 21.8-48.6 48.6-48.6h108.7c-18.8-9.8-32.8-22-41.4-37-26-46.1 7.7-96.2 9.2-98.3 24.2-29.5 51.4-42.2 81.7-38.8z m119.3 202.1c-2.6 0-5.1 0.2-7.7 0.2-17.2 0-32.8-0.8-47.9-1.8h-222c-12.3 0-22.3 10.1-22.3 22.3v123.6c0 12.3 9.9 22.3 22.3 22.3H381V327.6z m-59-28h85.5c-29.5-51.6-92-141.5-148.7-147.9-21.2-2.4-40 6.9-57.9 28.4 0.2 0-24.8 38.2-7.1 69.7 11.9 20.8 44.7 43.5 128.2 49.8z" fill="#EF4668" /></svg>